# File created by Blade
# Date/Time:  Thu Jan 22 16:21:39 2015
# Frame Rate: 120.000 fps
#------------------------------------------------------
:FULLY-SPECIFIED
:DEGREES
1819
root 7.021528 37.184998 5.933275 -3.723095 -8.020011 2.718305
RightUpLeg 10.523117 -7.539756 -7.944709
RightLeg -5.341263 -0.000000 0.000000
RightFoot -9.110956 -10.734822 18.553883
RightToeBase 15.248834 -0.000000 -0.000000
LeftUpLeg 10.326894 6.249906 2.051465
LeftLeg -2.622139 -0.000000 0.000000
LeftFoot -7.118919 10.314264 -19.422292
LeftToeBase 8.496805 -0.000000 -0.000000
Spine 9.658272 -4.603330 -4.141286
RightShoulder -3.739035 -12.529149 -24.931237
RightArm 11.128694 27.509757 43.260372
RightForeArm 10.753100 -0.000000 24.914031
RightHand 6.459527 0.000000 -14.685884
RightHandThumb1 -24.326973 -0.000000 -32.862282
LeftShoulder -27.862429 34.951301 10.303453
LeftArm 52.485374 -48.168774 -67.005124
LeftForeArm 38.198684 -0.000000 11.185190
LeftHand -16.697971 -0.000000 1.162855
LeftHandThumb1 -26.253704 0.000000 33.147579
Head 1.678037 15.241393 2.325176
1820
root 6.999264 37.186802 5.938001 -3.714689 -7.997136 2.709784
RightUpLeg 10.524847 -7.425433 -7.884987
RightLeg -5.327643 -0.000000 0.000000
RightFoot -9.154399 -10.862999 18.551230
RightToeBase 15.210561 -0.000000 -0.000000
LeftUpLeg 10.294027 6.213055 2.085157
LeftLeg -2.558979 -0.000000 0.000000
LeftFoot -7.142725 10.344993 -19.458472
LeftToeBase 8.488886 -0.000000 -0.000000
Spine 9.654200 -4.570859 -4.078207
RightShoulder -3.762576 -12.570347 -24.915982
RightArm 11.167253 27.539605 43.242231
RightForeArm 10.716223 -0.000000 24.836797
RightHand 6.435153 -0.000000 -14.688238
RightHandThumb1 -24.326973 -0.000000 -32.862282
LeftShoulder -27.915182 34.970245 10.252912
LeftArm 52.550314 -48.128899 -67.024900
LeftForeArm 38.181260 -0.000000 11.216155
LeftHand -16.659614 0.000000 1.149511
LeftHandThumb1 -26.253704 0.000000 33.147579
Head 1.648738 15.233388 2.316888
1821
root 6.976274 37.187769 5.946188 -3.719477 -7.949387 2.698689
RightUpLeg 10.557515 -7.375475 -7.834385
RightLeg -5.322948 -0.000000 0.000000
RightFoot -9.191180 -10.930591 18.591516
RightToeBase 15.188488 -0.000000 -0.000000
LeftUpLeg 10.288319 6.179943 2.124067
LeftLeg -2.519120 -0.000000 0.000000
LeftFoot -7.149209 10.357150 -19.470301
LeftToeBase 8.483023 -0.000000 -0.000000
Spine 9.662105 -4.537181 -4.024644
RightShoulder -3.817849 -12.566453 -24.882179
RightArm 11.176192 27.545016 43.215632
RightForeArm 10.730126 0.000000 24.760635
RightHand 6.469887 -0.000000 -14.680538
RightHandThumb1 -24.326973 -0.000000 -32.862282
LeftShoulder -27.905024 34.944070 10.283126
LeftArm 52.503673 -48.057905 -67.000136
LeftForeArm 38.178581 -0.000000 11.310278
LeftHand -16.712603 -0.000000 1.163823
LeftHandThumb1 -26.253704 0.000000 33.147579
Head 1.628457 15.223085 2.375619
1822
root 6.951272 37.188248 5.951225 -3.720147 -7.898687 2.684963
RightUpLeg 10.596906 -7.311748 -7.773614
RightLeg -5.342111 -0.000000 0.000000
RightFoot -9.190125 -11.065911 18.523572
RightToeBase 15.074241 -0.000000 -0.000000
LeftUpLeg 10.273763 6.129822 2.168661
LeftLeg -2.478534 -0.000000 0.000000
LeftFoot -7.165967 10.374808 -19.506480
LeftToeBase 8.484156 -0.000000 -0.000000
Spine 9.654469 -4.513499 -3.971861
RightShoulder -3.822465 -12.618257 -24.868628
RightArm 11.184782 27.615447 43.221330
RightForeArm 10.741547 0.000000 24.693173
RightHand 6.506914 -0.000000 -14.751263
RightHandThumb1 -24.326973 -0.000000 -32.862282
LeftShoulder -27.864622 34.950628 10.311633
LeftArm 52.454651 -48.015397 -66.950039
LeftForeArm 38.153084 -0.000000 11.384047
LeftHand -16.624104 -0.000000 1.120088
LeftHandThumb1 -26.253704 0.000000 33.147579
Head 1.649984 15.205724 2.405853
